<svg xmlns="http://www.w3.org/2000/svg" width="256" height="256" fill="none"><g clip-path="url(#a)"><g class="fills"><rect width="256" height="256" class="frame-background" rx="0" ry="0"/></g><g class="frame-children"><circle cx="128" cy="128" r="128" fill="#f9fbff" class="fills"/><defs><linearGradient id="a" x1="-.1" x2="1.2" y1=".3" y2=".7"><stop offset="0" stop-color="#fffff3" stop-opacity=".1"/><stop offset="1" stop-color="#ffffef" stop-opacity="0"/></linearGradient><pattern id="b" width="160" height="256" x="48" y="0" data-loading="false" patternUnits="userSpaceOnUse"><path fill="#1a2232" d="M0 0h160v256H0z"/><path fill="url(#a)" d="M0 0h160v256H0z"/></pattern></defs><path fill="url(#b)" d="M64 0h128a16 16 0 0 1 16 16v208a32 32 0 0 1-32 32H80a32 32 0 0 1-32-32V16A16 16 0 0 1 64 0z" class="fills"/><rect width="128" height="80" x="64" y="16" fill="#658b52" class="fills" rx="8" ry="8"/><rect width="40" height="24" x="60" y="108" fill="#b1b2b5" class="fills" rx="12" ry="12"/><rect width="40" height="24" x="108" y="116" fill="#b1b2b5" class="fills" rx="12" ry="12"/><rect width="40" height="24" x="156" y="108" fill="#b1b2b5" class="fills" rx="12" ry="12"/><rect width="40" height="24" x="60" y="140" fill="#b1b2b5" class="fills" rx="12" ry="12"/><rect width="40" height="24" x="108" y="148" fill="#b1b2b5" class="fills" rx="12" ry="12"/><rect width="40" height="24" x="156" y="140" fill="#b1b2b5" class="fills" rx="12" ry="12"/><rect width="40" height="24" x="60" y="172" fill="#b1b2b5" class="fills" rx="12" ry="12"/><rect width="40" height="24" x="108" y="180" fill="#b1b2b5" class="fills" rx="12" ry="12"/><rect width="40" height="24" x="156" y="172" fill="#b1b2b5" class="fills" rx="12" ry="12"/><rect width="40" height="24" x="60" y="204" fill="#b1b2b5" class="fills" rx="12" ry="12"/><rect width="40" height="24" x="108" y="212" fill="#b1b2b5" class="fills" rx="12" ry="12"/><rect width="40" height="24" x="156" y="204" fill="#b1b2b5" class="fills" rx="12" ry="12"/><rect width="51" height="17" x="75" y="26" fill="#131b0f" class="fills" rx="2" ry="2"/><rect width="21" height="48" x="90" y="34" fill="#131b0f" class="fills" rx="2" ry="2"/><path fill="#131b0f" d="M155 25c14 0 25.5 9 25.5 20.3 0 11.1-11.4 20.2-25.5 20.2-14 0-25.5-9-25.5-20.3 0-11.1 11.4-20.2 25.5-20.2Zm-.5 16c-3 0-5.5 2.2-5.5 5s2.5 5 5.5 5 5.5-2.2 5.5-5-2.5-5-5.5-5Z" class="fills"/><rect width="18.5" height="38.5" x="150.3" y="47" fill="#131b0f" class="fills" rx="2" ry="2" transform="rotate(32 159.5 66.2)"/></g></g></svg>
